<?xml version="1.0" encoding="utf-8"?>
<!-- Generator: Adobe Illustrator 18.0.0, SVG Export Plug-In . SVG Version: 6.00 Build 0)  -->
<!DOCTYPE svg PUBLIC "-//W3C//DTD SVG 1.1//EN" "http://www.w3.org/Graphics/SVG/1.1/DTD/svg11.dtd">
<svg version="1.1" xmlns="http://www.w3.org/2000/svg" xmlns:xlink="http://www.w3.org/1999/xlink" x="0px" y="0px"
	 viewBox="0 0 70 70" enable-background="new 0 0 70 70" xml:space="preserve">
<symbol  id="Awards">
</symbol>
<g id="Layer_1">
	<path fill="#2E3189" d="M59.3,32.6c0-7.9-6.4-14.3-14.3-14.3c-3.1,0-6,1-8.4,2.7c-0.2,1.3-0.1,2.7,0.3,3.9c0.4,0.7,1.2,2.2,1.2,2.1
		c0,0,0-0.2,0-0.2h0c0.3,1,0.3,1.9,0,2.7l0,0.1c1.1-2.8,3.8-4.6,6.8-4.6c4.1,0,7.4,3.3,7.4,7.4c0,1.2-0.3,2.4-0.9,3.5
		c0,0-8.4,15.6-8.4,15.6c-0.5,0.9-1.4,1.5-2.5,1.5c-1.1,0-2.1-0.7-2.6-1.7c-0.8-1.7-2.8-2.5-4.6-1.7c-1.7,0.8-2.5,2.8-1.7,4.6
		c1.6,3.5,5,5.7,8.9,5.7c3.6,0,6.8-1.9,8.5-5.1l8.5-15.8C58.8,37.1,59.3,34.9,59.3,32.6z"/>
	<path fill="#6C549A" d="M31.9,54.3c-0.4-0.9-0.4-1.9,0-2.8l0,0c-0.5,1-1.5,1.7-2.6,1.7c-1,0-2-0.6-2.5-1.5l-8.4-15.6
		c-0.6-1.1-0.9-2.2-0.9-3.4c0-4.1,3.3-7.4,7.4-7.4c2.4,0,4.5,1.1,5.9,3c0.4,0.8,0.8,1.6,1.3,2.3c0.7,1,1.7,1.5,2.9,1.5
		c0.7,0,1.3-0.4,1.9-0.8c1.4-0.9,1.8-2.3,1.3-4.3h0c0,0,0,0.2,0,0.2c0,0-0.8-1.6-1.2-2.2c-1.1-3.1-0.1-6.7,2.8-8.7
		c1.6-1.1,2-3.2,0.9-4.8c-1.1-1.6-3.2-2-4.8-0.9c-3,2.1-5.1,5.2-5.9,8.7c-1.6-0.6-3.3-0.9-5.1-0.9c-7.9,0-14.3,6.4-14.3,14.3
		c0,2.2,0.5,4.5,1.5,6.5l8.6,16c1.7,3.1,4.9,5,8.5,5c2.1,0,4.1-0.7,5.7-1.9C33.7,57.2,32.6,55.9,31.9,54.3z"/>
</g>
<g id="GRID" display="none">
</g>
<g id="Baseline_Grid" display="none">
</g>
<g id="Layer_4">
</g>
<g id="Layer_5">
</g>
</svg>
