<?xml version="1.0" encoding="utf-8"?>
<!-- Generator: Adobe Illustrator 18.0.0, SVG Export Plug-In . SVG Version: 6.00 Build 0)  -->
<!DOCTYPE svg PUBLIC "-//W3C//DTD SVG 1.1//EN" "http://www.w3.org/Graphics/SVG/1.1/DTD/svg11.dtd">
<svg version="1.1" xmlns="http://www.w3.org/2000/svg" xmlns:xlink="http://www.w3.org/1999/xlink" x="0px" y="0px"
	 viewBox="0 0 70 70" enable-background="new 0 0 70 70" xml:space="preserve">
<symbol  id="Awards">
</symbol>
<g id="Layer_1">
	<path fill="#2CAA4A" d="M44.3,36.1c0-2.1,1.7-3.8,3.8-3.8c2.1,0,3.8,1.7,3.8,3.8c0,2.1-1.7,3.8-3.8,3.8C46,40,44.3,38.3,44.3,36.1z
		 M35,32.7c-1.9,0-3.4,1.5-3.4,3.4c0,5.4-4.4,9.7-9.7,9.7c-5.4,0-9.7-4.4-9.7-9.7c0-5.5,3.3-8.3,9-12.7c1.5-1.2,1.8-3.3,0.6-4.8
		c-1.2-1.5-3.3-1.8-4.8-0.6c-5.7,4.5-11.7,9.1-11.7,18.1c0,9.1,7.4,16.6,16.6,16.6c5.3,0,10.1-2.6,13.1-6.5
		c2.1-2.8,3.4-6.3,3.4-10.1C38.4,34.3,36.9,32.7,35,32.7z"/>
	<path fill="#98C43A" d="M64.7,36.1c0,9.1-7.4,16.6-16.6,16.6c-5.3,0-10.1-2.6-13.1-6.5c2.1-2.8,3.4-6.3,3.4-10.1
		c0,5.4,4.4,9.7,9.7,9.7s9.7-4.4,9.7-9.7c0-5.5-3.3-8.3-9-12.7c-1.5-1.2-1.8-3.3-0.6-4.8c1.2-1.5,3.3-1.8,4.8-0.6
		C58.8,22.5,64.7,27.1,64.7,36.1z M18,36.1c0,2.1,1.7,3.8,3.8,3.8s3.8-1.7,3.8-3.8c0-2.1-1.7-3.8-3.8-3.8S18,34,18,36.1z"/>
</g>
<g id="GRID" display="none">
</g>
<g id="Baseline_Grid" display="none">
</g>
<g id="Layer_4">
</g>
<g id="Layer_5">
</g>
</svg>
