<?xml version="1.0" encoding="utf-8"?>
<!-- Generator: Adobe Illustrator 18.1.1, SVG Export Plug-In . SVG Version: 6.00 Build 0)  -->
<svg version="1.1" id="Layer_1" xmlns="http://www.w3.org/2000/svg" xmlns:xlink="http://www.w3.org/1999/xlink" x="0px" y="0px"
	 viewBox="0 235 640 637" enable-background="new 0 235 640 637" xml:space="preserve">
<g id="GRID" display="none">
</g>
<g id="Baseline_Grid" display="none">
</g>
<g id="Layer_4">
</g>
<g id="Layer_5">
</g>
<g id="Layer_1_2_">
	<g>
		<path fill="#2CAA4A" d="M363.8,758.6c-1.8-17.4-16.5-29.3-33.8-28.3c-3.7,0-7.3,0-11,0c-33.8-0.9-64.9-20.1-78.6-51.2
			c-6.4-13.7-8.2-27.4-8.2-39.3l0,0c0-8.2,1.8-16.5,4.6-23.8c0.9-2.7,1.8-5.5,2.7-7.3c2.7-5.5,4.6-10.1,7.3-15.5
			c7.3-14.6,14.6-30.2,21.9-44.8c8.2-17.4,17.4-35.7,25.6-53c7.3-16.5,15.5-32,22.9-48.5c0.9-0.9,0.9-1.8,1.8-2.7
			c-4.6-9.1-8.2-18.3-12.8-26.5c-0.9-0.9-0.9-2.7-1.8-3.7l-13.7-28.3c-4.6-9.1-3.7-19.2,0.9-27.4c0,0,0,0.9-0.9,0.9
			c-7.3,15.5-15.5,32-22.9,47.5c-15.5,32-31.1,64.9-46.6,96.9c-12.8,25.6-25.6,52.1-37.5,77.7c-9.1,18.3-13.7,39.3-13.7,60.3
			c0,11.9,0,34.7,13.7,64c21,45.7,62.2,76.8,109.7,85c8.2,1.8,16.5,2.7,25.6,2.7c0.9,0,1.8,0,2.7,0c4.6,0,9.1,0,13.7-0.9
			c2.7,0,6.4-0.9,9.1-1.8C357.4,785.1,365.7,772.3,363.8,758.6"/>
		<path fill="#98C43A" d="M455.3,580.3c-12.8-25.6-25.6-52.1-37.5-77.7c-15.5-32-31.1-64.9-46.6-96.9c-3.7-7.3-7.3-14.6-11-21.9
			c-3.7-7.3-7.3-14.6-11-21.9c-1.8-3.7-3.7-6.4-5.5-9.1c-1.8-2.7-4.6-4.6-7.3-6.4c-2.7-1.8-6.4-3.7-10.1-4.6
			c-4.6-0.9-9.1-0.9-13.7,0c-5.5,1.8-11,4.6-15.5,9.1c-3.7,3.7-5.5,8.2-7.3,12.8c-1.8,7.3-1.8,14.6,1.8,21v0.9l13.7,28.3
			c0.9,0.9,0.9,2.7,1.8,3.7c4.6,9.1,8.2,18.3,12.8,26.5c0.9,0.9,0.9,1.8,1.8,2.7c7.3,16.5,15.5,32,22.9,48.5
			c8.2,17.4,17.4,35.7,25.6,53c7.3,14.6,14.6,30.2,21.9,44.8c2.7,5.5,4.6,10.1,7.3,15.5c0.9,2.7,1.8,4.6,2.7,7.3
			c2.7,7.3,4.6,15.5,4.6,23.8c0,12.8-1.8,26.5-8.2,39.3c-13.7,31.1-44.8,50.3-78.6,51.2c3.7,0,7.3,0,11,0c17.4-1.8,32,11,33.8,28.3
			c0.9,13.7-7.3,26.5-20.1,32c47.5-9.1,88.7-40.2,109.7-85c13.7-29.3,13.7-52.1,13.7-64C468.1,619.6,463.5,599.5,455.3,580.3"/>
	</g>
</g>
<g id="Layer_5_1_">
</g>
</svg>
