<?xml version="1.0" encoding="utf-8"?>
<!-- Generator: Adobe Illustrator 18.0.0, SVG Export Plug-In . SVG Version: 6.00 Build 0)  -->
<!DOCTYPE svg PUBLIC "-//W3C//DTD SVG 1.1//EN" "http://www.w3.org/Graphics/SVG/1.1/DTD/svg11.dtd">
<svg version="1.1" xmlns="http://www.w3.org/2000/svg" xmlns:xlink="http://www.w3.org/1999/xlink" x="0px" y="0px"
	 viewBox="0 0 70 70" enable-background="new 0 0 70 70" xml:space="preserve">
<symbol  id="Awards">
</symbol>
<g id="Layer_1">
	<g>
		<path fill="#E53439" d="M58,17c-5.4-5.4-13.2-5.4-18.5,0L35,21.6l2.5,2.5c1.4,1.4,1.4,3.6,0,4.9c-0.8,0.8-2,1.2-3.1,1
			c1.1,0.2,2.3-0.1,3.1-1l7-7c2.6-2.6,6.1-2.6,8.7,0c1.3,1.3,1.9,2.8,1.9,4.3c0,1.5-0.7,3-2,4.3L35,48.6l-2.5,2.5
			c-1.4,1.4-1.4,3.6,0,4.9c0.7,0.7,1.6,1,2.5,1l0,0c0.9,0,1.8-0.3,2.5-1L58,35.5c2.6-2.6,4-5.8,4-9.2C62,22.9,60.6,19.6,58,17z"/>
		<path fill="#EA716D" d="M37.5,24L35,21.6L30.5,17c-5.4-5.4-13.2-5.4-18.5,0c-2.6,2.6-4,5.9-4,9.2c0,3.3,1.5,6.6,4,9.2c0,0,0,0,0,0
			L32.5,56c0.7,0.7,1.6,1,2.5,1l0,0c-0.9,0-1.8-0.3-2.5-1c-1.4-1.4-1.4-3.6,0-4.9l2.5-2.5l-18-18c0,0,0,0,0,0c-1.3-1.3-2-2.8-2-4.3
			c0-1.5,0.7-3,1.9-4.3c2.6-2.6,6.1-2.6,8.7,0l7,7c0.5,0.5,1.1,0.8,1.8,1c1.1,0.2,2.3-0.1,3.1-1C38.8,27.6,38.8,25.4,37.5,24z"/>
	</g>
</g>
<g id="GRID" display="none">
</g>
<g id="Baseline_Grid" display="none">
</g>
<g id="Layer_4">
</g>
<g id="Layer_5">
</g>
</svg>
