<?xml version="1.0" encoding="utf-8"?>
<!-- Generator: Adobe Illustrator 18.0.0, SVG Export Plug-In . SVG Version: 6.00 Build 0)  -->
<!DOCTYPE svg PUBLIC "-//W3C//DTD SVG 1.1//EN" "http://www.w3.org/Graphics/SVG/1.1/DTD/svg11.dtd">
<svg version="1.1" xmlns="http://www.w3.org/2000/svg" xmlns:xlink="http://www.w3.org/1999/xlink" x="0px" y="0px"
	 viewBox="0 0 229.6 84.6" enable-background="new 0 0 229.6 84.6" xml:space="preserve">
<symbol  id="Awards">
</symbol>
<g id="Layer_1">
	<path fill="#2E3191" d="M116.7,34.5l-2.4,10.4c-0.1,0.5-0.5,0.8-1.2,0.8s-1-0.3-1.2-0.8l-1.5-6.4l-1.5,6.4
		c-0.1,0.5-0.5,0.8-1.2,0.8c-0.6,0-1-0.3-1.2-0.8l-2.4-10.4c0-0.1,0-0.2,0-0.3c0-0.6,0.5-1,1.1-1c0.4,0,0.8,0.2,1,0.8l1.5,7.3
		l1.7-7.3c0.1-0.6,0.6-0.8,1-0.8h0.1c0.4,0,0.9,0.2,1,0.8l1.7,7.3l1.5-7.3c0.1-0.6,0.6-0.8,1-0.8c0.6,0,1.1,0.4,1.1,1
		C116.8,34.3,116.8,34.4,116.7,34.5"/>
	<path fill="#2E3191" d="M123.8,36.8c0-0.8-0.7-1.4-1.5-1.4h-0.2c-0.8,0-1.5,0.6-1.5,1.4v5.5c0,0.8,0.7,1.5,1.5,1.5h0.2
		c0.8,0,1.5-0.6,1.5-1.4V36.8z M122.3,45.8h-0.2c-1.9,0-3.6-1.5-3.6-3.5v-5.5c0-2,1.6-3.5,3.6-3.5h0.2c2,0,3.6,1.5,3.6,3.5v5.5
		C125.9,44.3,124.3,45.8,122.3,45.8"/>
	<path fill="#2E3191" d="M136.5,45.8c-0.5,0-1-0.3-1-1v-6.5l-1.5,3.5c-0.2,0.6-0.7,0.7-1,0.7c-0.3,0-0.8-0.1-1-0.7l-1.5-3.5v6.5
		c0,0.7-0.5,1-1,1c-0.5,0-1-0.3-1-1V34.3c0-0.6,0.5-1,1-1h0.3c0.7,0,0.9,0.4,1.1,0.9l2.2,5l2.2-5c0.2-0.5,0.5-0.9,1.1-0.9h0.3
		c0.6,0,1,0.5,1,1v10.4C137.6,45.4,137.1,45.8,136.5,45.8"/>
	<path fill="#2E3191" d="M146.5,45.7h-5.2c-0.6,0-1-0.5-1-1V34.4c0-0.6,0.5-1,1-1h5.2c0.7,0,1,0.5,1,1c0,0.5-0.3,1-1,1h-4.2v2.9h2.8
		c0.7,0,1,0.5,1,1c0,0.5-0.3,1-1,1h-2.8v3.3h4.2c0.7,0,1,0.5,1,1C147.5,45.1,147.2,45.7,146.5,45.7"/>
	<path fill="#2E3191" d="M155.6,45.8h-0.2c-0.7,0-0.9-0.4-1.1-0.9l-2.9-6.6v6.5c0,0.7-0.5,1-1,1c-0.5,0-1-0.3-1-1V34.3
		c0-0.6,0.5-1,1-1h0.2c0.7,0,0.9,0.4,1.1,0.9l2.8,6.4v-6.3c0-0.7,0.5-1,1-1c0.5,0,1,0.3,1,1v10.5C156.7,45.3,156.2,45.8,155.6,45.8"
		/>
	<path fill="#2E3191" d="M160.2,47.7L160,48c-0.2,0.2-0.5,0.3-0.7,0.3c-0.5,0-1-0.3-1-1c0-0.2,0.1-0.4,0.3-0.6l0.3-0.3
		c0.3-0.4,0.5-0.5,0.5-1.3v-0.6c0-0.6,0.5-0.9,1-0.9c0.5,0,1,0.3,1,0.9v0.6C161.2,46.3,160.9,46.9,160.2,47.7"/>
	<path fill="#2E3191" d="M169.4,45.8c-0.5,0-1-0.3-1-1V34.3c0-0.7,0.5-1,1-1c0.5,0,1,0.3,1,1v10.4C170.4,45.4,169.9,45.8,169.4,45.8
		"/>
	<path fill="#2E3191" d="M179.4,45.8h-0.2c-0.7,0-0.9-0.4-1.1-0.9l-2.9-6.6v6.5c0,0.7-0.5,1-1,1c-0.5,0-1-0.3-1-1V34.3
		c0-0.6,0.5-1,1-1h0.2c0.7,0,0.9,0.4,1.1,0.9l2.8,6.4v-6.3c0-0.7,0.5-1,1-1c0.5,0,1,0.3,1,1v10.5C180.5,45.3,180,45.8,179.4,45.8"/>
	<path fill="#2E3191" d="M189.4,35.4h-4.2v2.9h2.8c0.7,0,1,0.5,1,1c0,0.5-0.3,1-1,1h-2.8v4.4c0,0.7-0.5,1-1,1c-0.5,0-1-0.3-1-1V34.4
		c0-0.6,0.5-1,1-1h5.2c0.7,0,1,0.5,1,1C190.4,34.9,190.1,35.4,189.4,35.4"/>
	<path fill="#2E3191" d="M194.8,37.1l-1.1,3.8h2.2L194.8,37.1z M198.2,45.8c-0.4,0-0.8-0.2-0.9-0.7l-0.7-2.2H193l-0.7,2.2
		c-0.2,0.5-0.6,0.7-1,0.7c-0.6,0-1.1-0.4-1.1-1c0-0.1,0-0.2,0.1-0.3l3.3-10.3c0.2-0.8,0.7-0.9,1.1-0.9c0.4,0,0.9,0.1,1.1,0.9
		l3.2,10.3c0,0.1,0.1,0.2,0.1,0.3C199.2,45.4,198.7,45.8,198.2,45.8"/>
	<path fill="#2E3191" d="M207.3,45.8h-0.2c-0.7,0-0.9-0.4-1.1-0.9l-2.9-6.6v6.5c0,0.7-0.5,1-1,1c-0.5,0-1-0.3-1-1V34.3
		c0-0.6,0.5-1,1-1h0.2c0.7,0,0.9,0.4,1.1,0.9l2.8,6.4v-6.3c0-0.7,0.5-1,1-1c0.5,0,1,0.3,1,1v10.5C208.4,45.3,207.9,45.8,207.3,45.8"
		/>
	<path fill="#2E3191" d="M216,35.4h-1.4v9.3c0,0.7-0.5,1-1,1c-0.5,0-1-0.3-1-1v-9.3h-1.4c-0.7,0-1-0.5-1-1c0-0.5,0.3-1,1-1h4.9
		c0.7,0,1,0.5,1,1C217.1,34.9,216.7,35.4,216,35.4"/>
	<path fill="#2E3191" d="M222,45.8h-0.2c-1.9,0-3.6-1.3-3.6-3.5c0-0.7,0.5-1,1-1c0.5,0,1,0.3,1,1c0,1,0.6,1.5,1.5,1.5h0.2
		c0.9,0,1.6-0.4,1.6-1.4c0-2.2-5.2-2.4-5.2-5.7v-0.4c0-1.9,1.9-3,3.4-3h0.2c1.8,0,3.5,1.1,3.5,2.8c0,0.7-0.5,1-1,1
		c-0.5,0-1-0.3-1-0.9c0-0.5-0.6-0.9-1.4-0.9h-0.2c-0.8,0-1.4,0.4-1.4,1.1v0.3c0,1.4,5.2,2,5.2,5.7C225.6,44.4,224,45.8,222,45.8"/>
	<path fill="#2E3191" d="M228.6,47.7l-0.2,0.2c-0.2,0.2-0.5,0.3-0.7,0.3c-0.5,0-1-0.3-1-1c0-0.2,0.1-0.4,0.3-0.6l0.3-0.3
		c0.3-0.4,0.5-0.5,0.5-1.3v-0.6c0-0.6,0.5-0.9,1-0.9c0.5,0,1,0.3,1,0.9v0.6C229.6,46.3,229.4,46.9,228.6,47.7"/>
	<path fill="#2E3191" d="M108.3,53.5h-0.2c-0.3,0-0.6,0.1-0.6,0.6c0,0.3,0.3,0.7,0.4,0.9c0.5-0.4,0.9-0.7,0.9-1
		C108.9,53.7,108.7,53.5,108.3,53.5 M107.4,57.9c-0.6,0.5-1.1,1-1.1,1.7c0,0.8,0.7,1.5,1.5,1.5h0.2c0.4,0,0.8-0.1,1.2-0.4
		C108.7,60,108,59,107.4,57.9 M112.3,63.1c-0.7,0-1.5-0.3-1.9-0.8c-0.7,0.5-1.5,0.8-2.4,0.8h-0.2c-2.1,0-3.6-1.4-3.6-3.5
		c0-1.6,1.1-2.7,2.2-3.5c-0.7-1.1-0.9-1.6-0.9-2.1c0-1.5,0.9-2.5,2.6-2.5h0.1c0.9,0,2.7,0.5,2.7,2.5c0,1.3-1,2-1.9,2.7l1.4,2.3
		c0-0.1,0.2-0.3,0.3-0.3c0.2-0.2,0.5-0.3,0.7-0.3c0.5,0,1.1,0.4,1.1,1c0,0.1,0,0.3-0.1,0.4c-0.1,0.3-0.5,0.7-0.7,1
		c0.1,0.1,0.3,0.2,0.5,0.2c0.7,0,1,0.5,1,1C113.3,62.6,112.9,63.1,112.3,63.1"/>
	<path fill="#2E3191" d="M123,63.1h-0.2c-1.9,0-3.6-1.5-3.6-3.5v-5.5c0-2,1.6-3.5,3.6-3.5h0.2c1.8,0,3.3,1.2,3.5,3c0,0,0,0.1,0,0.2
		c0,0.6-0.5,1-1,1c-0.5,0-0.9-0.3-1-0.9c-0.1-0.7-0.7-1.2-1.5-1.2h-0.2c-0.8,0-1.5,0.6-1.5,1.4v5.5c0,0.8,0.7,1.4,1.5,1.4h0.2
		c0.8,0,1.4-0.5,1.5-1.2c0.1-0.6,0.6-0.9,1-0.9c0.6,0,1,0.4,1,1v0.2C126.3,61.9,124.8,63.1,123,63.1"/>
	<path fill="#2E3191" d="M134.8,63.1c-0.5,0-1-0.3-1-1v-4.4h-3.2v4.4c0,0.7-0.5,1-1,1c-0.5,0-1-0.3-1-1V51.6c0-0.7,0.5-1,1-1
		c0.5,0,1,0.3,1,1v4h3.2v-4c0-0.7,0.5-1,1-1c0.5,0,1,0.3,1,1v10.4C135.9,62.8,135.4,63.1,134.8,63.1"/>
	<path fill="#2E3191" d="M139.7,63.1c-0.5,0-1-0.3-1-1V51.6c0-0.7,0.5-1,1-1c0.5,0,1,0.3,1,1v10.4C140.7,62.8,140.2,63.1,139.7,63.1
		"/>
	<path fill="#2E3191" d="M149.1,63h-4.5c-0.6,0-1-0.5-1-1V51.6c0-0.7,0.5-1,1-1c0.5,0,1,0.3,1,1v9.3h3.5c0.7,0,1,0.5,1,1
		C150.1,62.5,149.8,63,149.1,63"/>
	<path fill="#2E3191" d="M157.2,54.2c0-0.8-0.7-1.4-1.5-1.4h-1.7v8.2h1.7c0.8,0,1.5-0.6,1.5-1.4V54.2z M155.7,63H153
		c-0.6,0-1-0.5-1-1V51.7c0-0.6,0.5-1,1-1h2.7c2,0,3.6,1.5,3.6,3.5v5.3C159.3,61.5,157.7,63,155.7,63"/>
	<path fill="#2E3191" d="M167.1,54.3c0-0.8-0.6-1.5-1.4-1.5h-1.8v3.2h1.9c0.8,0,1.4-0.7,1.4-1.5V54.3z M167,57.7l1.9,3.9
		c0.1,0.2,0.1,0.3,0.1,0.5c0,0.6-0.5,1-1.1,1c-0.4,0-0.7-0.2-0.9-0.6l-2.2-4.5h-1.1v4.1c0,0.7-0.5,1-1,1c-0.5,0-1-0.3-1-1V51.7
		c0-0.6,0.5-1,1-1h2.8c2,0,3.6,1.6,3.6,3.6v0.2C169.1,55.9,168.3,57.1,167,57.7"/>
	<path fill="#2E3191" d="M177.5,63h-5.2c-0.6,0-1-0.5-1-1V51.7c0-0.6,0.5-1,1-1h5.2c0.7,0,1,0.5,1,1c0,0.5-0.3,1-1,1h-4.2v2.9h2.8
		c0.7,0,1,0.5,1,1c0,0.5-0.3,1-1,1h-2.8v3.3h4.2c0.7,0,1,0.5,1,1C178.5,62.5,178.2,63,177.5,63"/>
	<path fill="#2E3191" d="M186.7,63.1h-0.2c-0.7,0-0.9-0.4-1.1-0.9l-2.9-6.7v6.5c0,0.7-0.5,1-1,1c-0.5,0-1-0.3-1-1V51.6
		c0-0.6,0.5-1,1-1h0.2c0.7,0,0.9,0.4,1.1,0.9l2.8,6.4v-6.3c0-0.7,0.5-1,1-1c0.5,0,1,0.3,1,1v10.5C187.7,62.6,187.2,63.1,186.7,63.1"
		/>
	<path fill="#2E3189" d="M49.6,29.4c0-1.5,0.1-2.2,0.2-2.5l0,0.2c0,0,0,0,0,0l0-0.2l0-0.1c1.8,1.2,2.2,2.9,2.2,3.9
		c0,0.6-0.2,1.4-0.8,1.5c-0.8,0.2-1.4-0.8-1.5-2C49.6,30.1,49.6,29.5,49.6,29.4z M53.8,40.8c-2.2,0-4,1.8-4,4V67c0,2.2,1.8,4,4,4
		s4-1.8,4-4V44.8C57.8,42.6,56,40.8,53.8,40.8z M17.1,67h-0.2v5c0,2.6-1.9,4.7-4.5,4.7c-2.6,0-4.5-2.1-4.5-4.7V40.6c0-2.2-1.8-4-4-4
		s-4,1.8-4,4V72c0,7,5.7,12.6,12.7,12.6c4.8,0,8.9-2.7,11-6.6l0,0C19.7,75.9,17.1,71.7,17.1,67z M103.9,16.4C99.2,6.3,89.3,0,78.2,0
		c-12,0-22.7,7.7-26.7,18.7l0,0c2.8,1,5.2,3,6.7,5.6l0,0c2-9.5,10.4-16.3,20-16.3c8,0,15.1,4.5,18.5,11.8c0.9,2,3.3,2.9,5.3,1.9
		C104,20.8,104.8,18.4,103.9,16.4z"/>
	<path fill="#6C549A" d="M90.9,55.5c-2,4.9-6.7,8.1-12,8.1c-7.1,0-13-5.8-13-13V29.2c0-7.1,5.8-13,13-13c5.3,0,10,3.2,12,8.1
		c0.8,2-0.1,4.4-2.2,5.2c-2,0.8-4.4-0.2-5.2-2.2c-0.8-1.9-2.6-3.1-4.6-3.1c-2.7,0-5,2.2-5,5v21.4c0,2.7,2.3,5,5,5
		c2,0,3.9-1.2,4.6-3.1c0.8-2,3.2-3,5.2-2.2C90.7,51.1,91.7,53.4,90.9,55.5z M47.3,18c-7,0-12.5,5.7-12.5,12.6V67
		c0,2.6-2.4,4.7-5,4.7c-2.6,0-5-2.1-5-4.7V35.6c0-2.2-1.8-4-4-4c-2.2,0-4,1.8-4,4V67c0,7,6,12.6,13,12.6c7,0,13-5.7,13-12.6V30.6
		c0-2.6,1.9-4.7,4.5-4.7c0.9,0,1.7,0.3,2.4,0.7l0,0l0,0c1.8,1.2,2.1,2.9,2.1,3.9c0,0.6-0.2,1.4-0.8,1.5l0,0c-0.8,0.2-1.4-0.8-1.5-2
		c0,0,0-0.2,0-0.3c0,2.8,1.6,6.1,5.3,6.1c2.2,0,5.1-1.5,5.1-5.3C59.9,23.7,54.3,18,47.3,18z"/>
</g>
<g id="GRID" display="none">
	<g display="inline">
		<rect x="-23.2" y="65.1" opacity="0.1" fill="#E41C24" width="80" height="2551"/>
		<rect x="76.8" y="65.1" opacity="0.1" fill="#E41C24" width="80" height="2551"/>
		<rect x="176.8" y="65.1" opacity="0.1" fill="#E41C24" width="80" height="2551"/>
	</g>
</g>
<g id="Baseline_Grid" display="none">
</g>
<g id="Layer_4">
</g>
<g id="Layer_5">
</g>
</svg>
