<?xml version="1.0" encoding="utf-8"?>
<!-- Generator: Adobe Illustrator 18.0.0, SVG Export Plug-In . SVG Version: 6.00 Build 0)  -->
<!DOCTYPE svg PUBLIC "-//W3C//DTD SVG 1.1//EN" "http://www.w3.org/Graphics/SVG/1.1/DTD/svg11.dtd">
<svg version="1.1" xmlns="http://www.w3.org/2000/svg" xmlns:xlink="http://www.w3.org/1999/xlink" x="0px" y="0px"
	 viewBox="0 0 125.3 100.9" enable-background="new 0 0 125.3 100.9" xml:space="preserve">
<symbol  id="Awards">
</symbol>
<g id="Layer_1">
	<path fill="#2E3189" d="M59.1,35c0-1.7,0.1-2.8,0.2-3.1h0c0,0,0,0,0,0l0,0l0,0c2.1,1.4,2.6,3.5,2.6,4.7c0,0.7-0.2,1.6-1,1.8
		c-1,0.2-1.6-0.9-1.8-2.4C59.1,35.8,59.1,35.2,59.1,35z M64.8,48.6c-2.6,0-4.5,2.1-4.5,4.8v26.5c0,2.6,1.9,4.8,4.5,4.8
		c2.6,0,4.5-2.1,4.5-4.8V53.4C69.3,50.7,67.4,48.6,64.8,48.6z M20.4,79.9h-0.2v5.9c0,3.1-2.4,5.5-5.5,5.5c-3.1,0-5.5-2.5-5.5-5.5
		V48.4c0-2.6-1.9-4.8-4.5-4.8s-4.5,2.1-4.5,4.8v37.4c0,8.3,6.6,15.1,14.9,15.1c5.7,0,10.5-3.2,13.1-7.9l0,0
		C23.7,90.4,20.4,85.5,20.4,79.9z M123.8,19.5C118.2,7.5,106.5,0,93.2,0c-14.3,0-27,9.1-31.8,22.3l0,0c3.4,1.2,6.2,3.6,8,6.7l0,0
		C71.7,17.6,81.7,9.5,93.2,9.5c9.6,0,18,5.4,22.1,14c1.1,2.4,3.9,3.4,6.3,2.3C123.9,24.8,124.9,21.9,123.8,19.5z"/>
	<path fill="#6C549A" d="M108.3,66.1c-2.4,5.9-8.1,9.6-14.4,9.6c-8.5,0-15.6-6.9-15.6-15.4V34.8c0-8.5,7.1-15.4,15.6-15.4
		c6.3,0,12,3.8,14.4,9.6c1,2.4-0.2,5.2-2.6,6.2c-2.4,1-5.2-0.2-6.2-2.6c-0.9-2.3-2.9-3.7-5.4-3.7c-3.3,0-5.8,2.7-5.8,5.9v25.5
		c0,3.3,2.5,5.9,5.8,5.9c2.4,0,4.5-1.5,5.4-3.7c1-2.4,3.7-3.6,6.2-2.6C108.1,60.9,109.3,63.7,108.3,66.1z M56.3,21.5
		c-8.3,0-15,6.8-15,15.1v43.4c0,3.1-2.4,5.5-5.5,5.5c-3.1,0-5.5-2.5-5.5-5.5V42.5c0-2.6-2.4-4.8-5-4.8c-2.6,0-5,2.1-5,4.8v37.4
		c0,8.3,6.7,15.1,15,15.1c8.3,0,15-6.8,15-15.1V36.5c0-3.1,2.7-5.5,5.8-5.5c1.1,0,2.2,0.3,3.1,0.9l0.1,0l0,0
		c2.1,1.4,2.6,3.5,2.6,4.7c0,0.7-0.2,1.6-1,1.8l0,0c-1,0.2-1.6-0.9-1.8-2.4c0-0.1,0-0.2,0-0.4c0,3.4,1.9,7.2,6.3,7.2
		c2.7,0,6-1.8,6-6.3C71.4,28.2,64.6,21.5,56.3,21.5z"/>
</g>
<g id="GRID" display="none">
	<g display="inline">
		<rect x="-0.7" y="69" opacity="0.1" fill="#E41C24" width="80" height="2551"/>
		<rect x="99.3" y="69" opacity="0.1" fill="#E41C24" width="80" height="2551"/>
	</g>
</g>
<g id="Baseline_Grid" display="none">
</g>
<g id="Layer_4">
</g>
<g id="Layer_5">
</g>
</svg>
