<svg version="1.1" id="Layer_1" xmlns="http://www.w3.org/2000/svg" xmlns:xlink="http://www.w3.org/1999/xlink" x="0px" y="0px"
	 viewBox="0 0 612 792" enable-background="new 0 0 612 792" xml:space="preserve">
<path fill="#6C549A" d="M244.2,120.6c-65.5,0-126.7,29.4-167.7,80.8c-61.8,77.1-60.6,192.8,2.4,269.3c41,49.6,101.6,77.7,165.2,77.7
	c40.4,0,80.2-11.6,114.4-33l3.7-2.4l145,146.3c15.9,16.5,44.7,16.5,60.6,0c8.6-8.6,13.5-19.6,13.5-31.2s-4.3-22-12.2-30.6
	L423.5,451.7l2.4-3.7c53.2-85.1,40.4-193.4-30-264.4C355.6,142.6,301.7,120.6,244.2,120.6 M351.9,442.5
	c-28.8,28.8-67.3,44.7-107.7,44.7c-41,0-78.9-15.9-107.7-44.7c-28.8-28.8-44.7-67.3-44.7-107.7c0-41,15.9-78.9,44.7-107.7
	s67.3-44.7,107.7-44.7c41,0,78.9,15.9,107.7,44.7c28.8,28.8,44.7,67.3,44.7,107.7S380.7,413.7,351.9,442.5"/>
</svg>
